Walter White, a struggling high school chemistry teacher is diagnosed with advanced lung cancer.
He turns to a life of crime, producing and selling methamphetamine accompanied by a former student, Jesse Pinkman with the aim of securing his family's financial future before he dies.

General
*******
Format                          : Matroska
File size                        : 451 MiB
Duration                         : 50mn 13s
Overall bit rate                 : 1 254 Kbps
Writing application              : HandBrake 0.9.5
Writing library                  : libmkv 0.6.4.1

Video
*****
ID                               : 1
Format                           : AVC
Format/Info                      : Advanced Video Codec
Format profile                   : Main@L3.0
Format settings, CABAC           : Yes
Format settings, ReFrames        : 4 frames
Muxing mode                      : Container profile=Unknown@3.0
Codec ID                         : V_MPEG4/ISO/AVC
Duration                         : 50mn 10s
Bit rate                         : 845 Kbps
Nominal bit rate                 : 865 Kbps
Width                            : 624 pixels
Height                           : 352 pixels
Display aspect ratio             : 16:9
Frame rate mode                  : Variable
Frame rate                       : 23.976 fps
Resolution                       : 8 bits
Colorimetry                      : 4:2:0
Scan type                        : Progressive
Bits/(Pixel*Frame)               : 0.160
Stream size                      : 303 MiB (67%)
Writing library                  : x264 core 112


Audio
*****
ID                               : 2
Format                           : AC-3
Format/Info                      : Audio Coding 3
Codec ID                         : A_AC3
Duration                         : 50mn 13s
Bit rate mode                    : Constant
Bit rate                         : 384 Kbps
Channel(s)                       : 6 channels
Channel positions                : Front: L C R, Side: L R, LFE
Sampling rate                    : 48.0 KHz
Stream size                      : 138 MiB (31%)

PLEASE SEED FOR AS LONG AS POSSIBLE!
